Coordinates
version=1
nRows=12
nColumns=24
inDegrees=yes

Units are S.I. units (second, meters, Newtons, ...)
Angles are in degrees.

endheader
time	pelvis_tilt	pelvis_list	pelvis_rotation	pelvis_tx	pelvis_ty	pelvis_tz	hip_flexion_r	hip_adduction_r	hip_rotation_r	knee_angle_r	ankle_angle_r	subtalar_angle_r	mtp_angle_r	hip_flexion_l	hip_adduction_l	hip_rotation_l	knee_angle_l	ankle_angle_l	subtalar_angle_l	mtp_angle_l	lumbar_extension	lumbar_bending	lumbar_rotation
      1.19150000	     -2.56842467	      6.27878802	     -7.25003495	      0.20504172	      1.00833580	      0.25423555	     15.25418251	     -8.86905669	      1.34505811	    -65.41987241	    -10.49315964	     -9.85768172	      7.50698288	      8.70190625	     10.47278928	      5.03015060	    -13.16733438	      5.78603496	    -15.83163886	     -4.14948862	    -10.03673578	     -2.29149181	      2.58727522
      1.19566667	     -2.60493677	      6.09974944	     -7.27150723	      0.20996147	      1.00912425	      0.25417963	     15.72898600	     -8.58861757	      1.35798133	    -65.25565711	     -9.46851554	    -10.23894903	      7.50684908	      8.24187090	     10.30841890	      5.02217996	    -12.81707145	      5.78792935	    -15.76175537	     -4.15184583	    -10.02029837	     -2.04311954	      2.48402787
      1.19983333	     -2.60134871	      5.90018188	     -7.25867862	      0.21486706	      1.00996102	      0.25405283	     16.13867948	     -8.30947290	      1.31880235	    -65.03448023	     -8.44589949	    -10.48264073	      7.46436412	      7.72760396	     10.13751459	      5.09831446	    -12.45460289	      5.80047674	    -15.72875132	     -4.16368942	    -10.05958583	     -1.71102288	      2.13422788
      1.20400000	     -2.60835658	      5.71284829	     -7.22243832	      0.21977159	      1.01078692	      0.25391219	     16.54542174	     -8.04458808	      1.25311161	    -64.75406618	     -7.50407976	    -10.85735066	      7.35844143	      7.22363832	      9.97871274	      5.19045708	    -12.08393345	      5.76119671	    -15.73109406	     -4.19193347	    -10.07922034	     -1.41731994	      1.82750778
      1.20816667	     -2.66581778	      5.52504719	     -7.19538512	      0.22465933	      1.01150815	      0.25380905	     17.00436046	     -7.75936498	      1.21064256	    -64.43128383	     -6.60027585	    -11.22645386	      7.33236039	      6.78821989	      9.80570242	      5.22771716	    -11.73939830	      5.74602747	    -15.69222873	     -4.20179591	    -10.04879439	     -1.17014549	      1.74953079
      1.21233333	     -2.69663440	      5.33096176	     -7.15168930	      0.22953674	      1.01227116	      0.25368950	     17.41515514	     -7.47526637	      1.14749999	    -64.04458494	     -5.73393927	    -11.57756320	      7.29202153	      6.32058040	      9.63020128	      5.28444057	    -11.38655029	      5.71273441	    -15.66205031	     -4.21560138	    -10.05243662	     -0.89031664	      1.58580800
      1.21650000	     -2.69032369	      5.11633964	     -7.08197066	      0.23444662	      1.01310032	      0.25353048	     17.75311874	     -7.18397666	      1.05127839	    -63.57836645	     -4.96669760	    -11.92062934	      7.13717751	      5.78453361	      9.44205596	      5.42665078	    -10.98371990	      5.66436518	    -15.67299399	     -4.25620693	    -10.08497929	     -0.53549382	      1.14302371
      1.22066667	     -2.70183995	      4.93409512	     -7.00508361	      0.23932263	      1.01384707	      0.25336205	     18.11660492	     -6.92747539	      0.95424445	    -63.09031884	     -4.19606248	    -12.30161790	      6.86837560	      5.28903729	      9.28407912	      5.53330180	    -10.60865215	      5.59229148	    -15.66349398	     -4.32230334	    -10.10645506	     -0.23674236	      0.80950750
      1.22483333	     -2.74955242	      4.73050579	     -6.93909462	      0.24420014	      1.01454372	      0.25324733	     18.50051803	     -6.62794631	      0.88462530	    -62.53654195	     -3.46527674	    -12.61964915	      6.71412352	      4.83703592	      9.09074776	      5.59701041	    -10.24753005	      5.55747804	    -15.62362542	     -4.36007442	    -10.08034741	      0.05887046	      0.65876879
      1.22900000	     -2.77728116	      4.52779868	     -6.85154851	      0.24906598	      1.01525176	      0.25311014	     18.84649917	     -6.33916105	      0.79142855	    -61.93104030	     -2.77620883	    -12.98825555	      6.51918447	      4.36536079	      8.90067040	      5.68211774	     -9.88655492	      5.50127367	    -15.56674962	     -4.40407482	    -10.09074661	      0.37174434	      0.40836848
      1.23316667	     -2.79373028	      4.35353912	     -6.74181322	      0.25393342	      1.01592962	      0.25295954	     19.17096477	     -6.09229271	      0.67894978	    -61.28610602	     -2.08705147	    -13.36614126	      6.08997771	      3.89319909	      8.74115024	      5.75475353	     -9.53912722	      5.42483978	    -15.52357586	     -4.49193218	    -10.08557647	      0.63880904	      0.05238599
      1.23733333	     -2.85815448	      4.15171329	     -6.65615733	      0.25878415	      1.01653619	      0.25285359	     19.53396559	     -5.79063984	      0.61378644	    -60.58267060	     -1.45031037	    -13.64135989	      5.88804451	      3.47001300	      8.54199287	      5.82143952	     -9.19011200	      5.37807925	    -15.45480346	     -4.53134737	    -10.05446820	      0.93042239	     -0.06748844
